# xmcd CD database file
#
# Track frame offsets:
#	183
#	21870
#	44345
#	64140
#	90130
#	113790
#	138733
#	165420
#	192628
#	212473
#
# Disc length: 3232 seconds
#
# Revision: 0
# Processed by: cddbd v1.5.2PL0 Copyright (c) Steve Scherf et al.
# Submitted via: CDex 1.51
#
DISCID=840c9e0a
DTITLE=Viva Salsa ! - CD3
DYEAR=1991
DGENRE=Salsa
TTITLE0=Amor en la arena
TTITLE1=Como cambian los tiempos
TTITLE2=Dile
TTITLE3=Nadie se salva de la rumba
TTITLE4=Ya no puede ser
TTITLE5=Mucho mejor
TTITLE6=Te estan buscando
TTITLE7=Ligia Elena
TTITLE8=La verdad
TTITLE9=Lisa
EXTD=YEAR: 1991
EXTT0=
EXTT1=
EXTT2=
EXTT3=
EXTT4=
EXTT5=
EXTT6=
EXTT7=
EXTT8=
EXTT9=
PLAYORDER=
